<?xml version="1.0" encoding="UTF-8"?>
<svg id="Layer_2" data-name="Layer 2" xmlns="http://www.w3.org/2000/svg" viewBox="0 0 150.22 150">
  <defs>
    <style>
      .cls-1 {
        fill: #494c4e;
      }
    </style>
  </defs>
  <g id="Layer_1-2" data-name="Layer 1">
    <path class="cls-1" d="m75.11,0C33.63,0,0,33.63,0,75.11c0,2.56.14,5.13.42,7.68,4.37,41.25,41.35,71.15,82.6,66.79,35.23-3.73,63.06-31.56,66.79-66.79.28-2.55.41-5.11.42-7.68C150.22,33.63,116.59,0,75.11,0Zm45.23,112c-.08,0-.5.67-.58.67-20.63,24.66-57.34,27.93-82,7.3-2.64-2.21-5.09-4.66-7.3-7.3-.08,0-.5-.67-.58-.67-.46-.67-.72-1.45-.75-2.25.03-1.79,1.16-3.38,2.84-4.01,6.18-2.09,12.1-4.09,13.77-4.51-.08-.38.01-.78.25-1.08.45-1.65,1.88-2.85,3.59-3l10.6-.83c-.09-2.28-.63-4.52-1.59-6.59v-.08c-.89-2.36-2.16-4.56-3.76-6.51-4.36-5.69-6.69-12.69-6.59-19.86-.96-15.35,10.55-28.63,25.87-29.88h2c15.33,1.24,26.83,14.53,25.87,29.88.09,7.17-2.23,14.17-6.59,19.86-1.59,1.95-2.86,4.15-3.76,6.51v.08c-.96,2.07-1.5,4.31-1.59,6.59l10.6.83c1.71.15,3.14,1.35,3.59,3,.24.31.33.7.25,1.08,1.67.42,7.59,2.42,13.77,4.51,2.15.69,3.33,2.99,2.64,5.14-.13.4-.32.77-.56,1.12Z"/>
  </g>
</svg>