<?xml version="1.0" encoding="UTF-8"?>
<svg id="Layer_2" data-name="Layer 2" xmlns="http://www.w3.org/2000/svg" viewBox="0 0 139.52 91">
  <defs>
    <style>
      .cls-1 {
        fill: rgba(255, 102, 101, .8);
      }

      .cls-2 {
        fill: #ff6665;
      }
    </style>
  </defs>
  <g id="Layer_1-2" data-name="Layer 1">
    <path class="cls-2" d="m86.06,61.67c18.84-10.57,42.67-4.03,53.47,14.68l-16.25,9.38c-18.92,10.92-43.12,4.31-53.85-14.73l16.63-9.33Z"/>
    <path class="cls-1" d="m79.16,54.26c10.76-18.64,34.59-25.02,53.23-14.26l-9.74,16.87c-10.76,18.64-34.59,25.02-53.23,14.26l9.74-16.87Z"/>
    <path class="cls-1" d="m68.58,52.45c0-22.6,18.32-40.93,40.93-40.93v19.1c0,22.6-18.32,40.93-40.93,40.93v-19.1Z"/>
    <path class="cls-1" d="m58.92,53.23c-10.76-18.64-4.38-42.47,14.26-53.23l9.74,16.87c10.76,18.64,4.38,42.47-14.26,53.23l-9.74-16.87Z"/>
    <path class="cls-1" d="m68.58,49.72c0-21.1-17.1-38.2-38.2-38.2v21.83c0,21.1,17.1,38.2,38.2,38.2v-21.83Z"/>
    <path class="cls-1" d="m60.36,54.26c-10.76-18.64-34.59-25.02-53.23-14.26l9.74,16.87c10.76,18.64,34.59,25.02,53.23,14.26l-9.74-16.87Z"/>
    <path class="cls-2" d="m53.47,61.67c-18.84-10.57-42.67-4.03-53.47,14.68l16.25,9.38c18.92,10.92,43.12,4.31,53.85-14.73l-16.64-9.33Z"/>
  </g>
</svg>